<svg xmlns="http://www.w3.org/2000/svg" xmlns:xlink="http://www.w3.org/1999/xlink" width="700" zoomAndPan="magnify" viewBox="0 0 525 525.000007" height="700" preserveAspectRatio="xMidYMid meet" version="1.2"><defs><clipPath id="17db5d400f"><path d="M 16.398438 15.898438 L 508.601562 15.898438 L 508.601562 508.101562 L 16.398438 508.101562 Z M 16.398438 15.898438 "/></clipPath><clipPath id="94c1737d17"><path d="M 262.5 15.898438 C 126.582031 15.898438 16.398438 126.082031 16.398438 262 C 16.398438 397.917969 126.582031 508.101562 262.5 508.101562 C 398.417969 508.101562 508.601562 397.917969 508.601562 262 C 508.601562 126.082031 398.417969 15.898438 262.5 15.898438 Z M 262.5 15.898438 "/></clipPath></defs><g id="2965092999"><g clip-rule="nonzero" clip-path="url(#17db5d400f)"><g clip-rule="nonzero" clip-path="url(#94c1737d17)"><path style=" stroke:none;fill-rule:nonzero;fill:#ff8dd3;fill-opacity:1;" d="M 16.398438 15.898438 L 508.601562 15.898438 L 508.601562 508.101562 L 16.398438 508.101562 Z M 16.398438 15.898438 "/></g></g><g style="fill:#ffffff;fill-opacity:1;"><g transform="translate(50.979823, 226.416957)"><path style="stroke:none" d="M 23.6875 -40.421875 L 28.90625 -36.515625 C 27.34375 -35.234375 25.609375 -33.992188 23.703125 -32.796875 C 21.804688 -31.597656 19.863281 -30.507812 17.875 -29.53125 C 15.894531 -28.550781 13.957031 -27.753906 12.0625 -27.140625 C 11.925781 -27.910156 11.6875 -28.910156 11.34375 -30.140625 C 11.007812 -31.378906 10.695312 -32.390625 10.40625 -33.171875 C 11.988281 -33.628906 13.609375 -34.242188 15.265625 -35.015625 C 16.921875 -35.796875 18.488281 -36.648438 19.96875 -37.578125 C 21.457031 -38.515625 22.695312 -39.460938 23.6875 -40.421875 Z M 22.890625 -4.25 L 28.578125 -5.5625 C 29.398438 -3.945312 30.171875 -2.164062 30.890625 -0.21875 C 31.609375 1.71875 32.078125 3.394531 32.296875 4.8125 L 26.1875 6.28125 C 26.09375 5.375 25.875 4.316406 25.53125 3.109375 C 25.1875 1.898438 24.785156 0.644531 24.328125 -0.65625 C 23.878906 -1.957031 23.398438 -3.15625 22.890625 -4.25 Z M 55.9375 -9.03125 L 49.375 -10.75 L 48.3125 -6.65625 L 54.421875 -5.046875 L 52.953125 0.515625 L 46.84375 -1.09375 L 44.0625 9.453125 C 43.65625 11.003906 43.160156 12.144531 42.578125 12.875 C 42.003906 13.613281 41.140625 14.078125 39.984375 14.265625 C 38.859375 14.460938 37.550781 14.414062 36.0625 14.125 C 34.570312 13.84375 32.863281 13.445312 30.9375 12.9375 C 31.019531 12.050781 31.015625 11.015625 30.921875 9.828125 C 30.835938 8.648438 30.71875 7.597656 30.5625 6.671875 C 31.820312 7.035156 33.0625 7.382812 34.28125 7.71875 C 35.5 8.0625 36.316406 8.273438 36.734375 8.359375 C 37.109375 8.453125 37.390625 8.457031 37.578125 8.375 C 37.765625 8.289062 37.90625 8.082031 38 7.75 L 40.75 -2.703125 L 20.765625 -7.96875 L 22.234375 -13.53125 L 42.21875 -8.265625 L 43.28125 -12.359375 L 22.78125 -17.75 L 24.0625 -22.59375 C 23.539062 -22.144531 23.007812 -21.703125 22.46875 -21.265625 C 21.9375 -20.835938 21.363281 -20.394531 20.75 -19.9375 L 13.328125 8.25 L 7.453125 6.703125 L 13.109375 -14.734375 C 11.097656 -13.554688 9.15625 -12.550781 7.28125 -11.71875 C 7.269531 -12.238281 7.195312 -12.945312 7.0625 -13.84375 C 6.9375 -14.75 6.796875 -15.664062 6.640625 -16.59375 C 6.484375 -17.519531 6.3125 -18.265625 6.125 -18.828125 C 7.914062 -19.492188 9.765625 -20.335938 11.671875 -21.359375 C 13.578125 -22.378906 15.425781 -23.53125 17.21875 -24.8125 C 19.007812 -26.09375 20.609375 -27.429688 22.015625 -28.828125 L 26.78125 -25.078125 C 26.445312 -24.804688 26.113281 -24.5 25.78125 -24.15625 C 25.445312 -23.820312 25.09375 -23.503906 24.71875 -23.203125 L 37.734375 -19.765625 L 38.921875 -24.265625 L 28.34375 -27.0625 L 29.8125 -32.625 L 40.390625 -29.828125 L 41.875 -35.46875 L 47.96875 -33.859375 L 46.484375 -28.21875 L 57.578125 -25.296875 L 56.109375 -19.734375 L 45.015625 -22.65625 L 43.828125 -18.15625 L 57.40625 -14.59375 Z M 55.9375 -9.03125 "/></g></g><g style="fill:#ffffff;fill-opacity:1;"><g transform="translate(102.617463, 240.017394)"><path style="stroke:none" d="M 10.5 -27.5 C 11.46875 -27.425781 12.566406 -27.382812 13.796875 -27.375 C 15.035156 -27.363281 16.15625 -27.375 17.15625 -27.40625 C 18.226562 -27.445312 19.675781 -27.507812 21.5 -27.59375 C 23.332031 -27.6875 25.335938 -27.742188 27.515625 -27.765625 C 29.703125 -27.785156 31.910156 -27.703125 34.140625 -27.515625 C 36.367188 -27.328125 38.414062 -26.988281 40.28125 -26.5 C 43.382812 -25.6875 46.03125 -24.375 48.21875 -22.5625 C 50.414062 -20.757812 51.957031 -18.566406 52.84375 -15.984375 C 53.726562 -13.410156 53.753906 -10.535156 52.921875 -7.359375 C 51.910156 -3.515625 49.851562 -0.46875 46.75 1.78125 C 43.644531 4.039062 39.703125 5.441406 34.921875 5.984375 C 30.148438 6.535156 24.703125 6.171875 18.578125 4.890625 L 17.453125 -2.6875 C 20.941406 -1.84375 24.25 -1.3125 27.375 -1.09375 C 30.5 -0.882812 33.328125 -1.015625 35.859375 -1.484375 C 38.398438 -1.960938 40.515625 -2.847656 42.203125 -4.140625 C 43.890625 -5.441406 45.023438 -7.195312 45.609375 -9.40625 C 46.242188 -11.8125 45.96875 -14.039062 44.78125 -16.09375 C 43.59375 -18.144531 41.46875 -19.570312 38.40625 -20.375 C 36.507812 -20.875 34.335938 -21.160156 31.890625 -21.234375 C 29.441406 -21.304688 26.929688 -21.25 24.359375 -21.0625 C 21.785156 -20.875 19.367188 -20.625 17.109375 -20.3125 C 14.859375 -20.007812 12.984375 -19.742188 11.484375 -19.515625 Z M 10.5 -27.5 "/></g></g><g style="fill:#ffffff;fill-opacity:1;"><g transform="translate(154.255103, 253.617832)"><path style="stroke:none" d="M 16.546875 -5.578125 C 17.617188 -5.296875 18.882812 -5.84375 20.34375 -7.21875 C 21.8125 -8.601562 23.519531 -10.882812 25.46875 -14.0625 C 26.550781 -15.789062 27.601562 -17.660156 28.625 -19.671875 C 29.65625 -21.691406 30.601562 -23.710938 31.46875 -25.734375 C 29.238281 -25.835938 27.175781 -25.578125 25.28125 -24.953125 C 23.394531 -24.335938 21.710938 -23.457031 20.234375 -22.3125 C 18.753906 -21.175781 17.535156 -19.910156 16.578125 -18.515625 C 15.628906 -17.128906 14.972656 -15.734375 14.609375 -14.328125 C 13.921875 -11.734375 13.828125 -9.691406 14.328125 -8.203125 C 14.835938 -6.710938 15.578125 -5.835938 16.546875 -5.578125 Z M 27.59375 9.515625 L 25.359375 2.484375 C 26.398438 2.609375 27.316406 2.695312 28.109375 2.75 C 28.898438 2.8125 29.640625 2.863281 30.328125 2.90625 C 32.660156 2.96875 34.851562 2.625 36.90625 1.875 C 38.96875 1.132812 40.757812 -0.0234375 42.28125 -1.609375 C 43.800781 -3.203125 44.890625 -5.238281 45.546875 -7.71875 C 46.472656 -11.257812 46.335938 -14.492188 45.140625 -17.421875 C 43.953125 -20.359375 41.710938 -22.570312 38.421875 -24.0625 C 37.515625 -21.976562 36.507812 -19.832031 35.40625 -17.625 C 34.3125 -15.414062 33.082031 -13.203125 31.71875 -10.984375 C 28.84375 -6.210938 25.910156 -2.632812 22.921875 -0.25 C 19.941406 2.125 17.054688 2.941406 14.265625 2.203125 C 12.410156 1.710938 10.859375 0.625 9.609375 -1.0625 C 8.359375 -2.75 7.546875 -4.835938 7.171875 -7.328125 C 6.796875 -9.828125 6.988281 -12.519531 7.75 -15.40625 C 8.53125 -18.375 9.863281 -21.015625 11.75 -23.328125 C 13.632812 -25.648438 15.914062 -27.535156 18.59375 -28.984375 C 21.28125 -30.429688 24.203125 -31.363281 27.359375 -31.78125 C 30.523438 -32.195312 33.765625 -31.972656 37.078125 -31.109375 C 40.242188 -30.273438 42.960938 -29.003906 45.234375 -27.296875 C 47.515625 -25.585938 49.304688 -23.59375 50.609375 -21.3125 C 51.921875 -19.03125 52.742188 -16.546875 53.078125 -13.859375 C 53.410156 -11.179688 53.207031 -8.453125 52.46875 -5.671875 C 51.050781 -0.296875 48.234375 3.753906 44.015625 6.484375 C 39.796875 9.222656 34.320312 10.234375 27.59375 9.515625 Z M 27.59375 9.515625 "/></g></g><g style="fill:#ffffff;fill-opacity:1;"><g transform="translate(205.892742, 267.218269)"><path style="stroke:none" d="M 32.625 -29.953125 C 34.144531 -29.328125 35.867188 -28.707031 37.796875 -28.09375 C 39.722656 -27.488281 41.707031 -26.921875 43.75 -26.390625 C 45.800781 -25.867188 47.769531 -25.414062 49.65625 -25.03125 C 51.550781 -24.644531 53.207031 -24.351562 54.625 -24.15625 L 52.875 -17.546875 C 50.738281 -17.921875 48.359375 -18.414062 45.734375 -19.03125 C 43.117188 -19.65625 40.519531 -20.34375 37.9375 -21.09375 C 35.363281 -21.84375 33.03125 -22.585938 30.9375 -23.328125 Z M 25.25 -9.09375 L 31 -6.96875 C 30.570312 -6.195312 30.21875 -5.488281 29.9375 -4.84375 C 29.664062 -4.195312 29.4375 -3.53125 29.25 -2.84375 C 28.957031 -1.707031 29.265625 -0.679688 30.171875 0.234375 C 31.085938 1.160156 32.832031 1.960938 35.40625 2.640625 C 37.71875 3.253906 39.910156 3.710938 41.984375 4.015625 C 44.066406 4.316406 46.265625 4.539062 48.578125 4.6875 L 46.90625 11.640625 C 45.175781 11.503906 43.21875 11.25 41.03125 10.875 C 38.84375 10.507812 36.304688 9.945312 33.421875 9.1875 C 29.015625 8.03125 25.941406 6.421875 24.203125 4.359375 C 22.460938 2.304688 21.9375 -0.0234375 22.625 -2.640625 C 22.90625 -3.710938 23.273438 -4.78125 23.734375 -5.84375 C 24.203125 -6.90625 24.707031 -7.988281 25.25 -9.09375 Z M 18.65625 -37.890625 L 25.671875 -35.375 C 25.441406 -35.070312 25.160156 -34.640625 24.828125 -34.078125 C 24.492188 -33.515625 24.179688 -32.957031 23.890625 -32.40625 C 23.597656 -31.863281 23.378906 -31.445312 23.234375 -31.15625 C 22.835938 -30.34375 22.296875 -29.195312 21.609375 -27.71875 C 20.921875 -26.238281 20.191406 -24.601562 19.421875 -22.8125 C 18.660156 -21.03125 17.953125 -19.28125 17.296875 -17.5625 C 16.648438 -15.84375 16.15625 -14.34375 15.8125 -13.0625 C 15.695312 -12.582031 15.578125 -12.039062 15.453125 -11.4375 C 15.328125 -10.84375 15.222656 -10.269531 15.140625 -9.71875 C 15.765625 -10.507812 16.382812 -11.28125 17 -12.03125 C 17.625 -12.78125 18.21875 -13.523438 18.78125 -14.265625 L 21.328125 -10.9375 C 20.472656 -9.65625 19.582031 -8.28125 18.65625 -6.8125 C 17.738281 -5.34375 16.894531 -3.957031 16.125 -2.65625 C 15.363281 -1.351562 14.773438 -0.257812 14.359375 0.625 C 14.203125 0.945312 14.023438 1.34375 13.828125 1.8125 C 13.628906 2.28125 13.492188 2.648438 13.421875 2.921875 C 13.390625 3.210938 13.320312 3.546875 13.21875 3.921875 C 13.113281 4.304688 13.03125 4.691406 12.96875 5.078125 L 6.984375 3.9375 C 6.921875 2.007812 7.070312 -0.488281 7.4375 -3.5625 C 7.8125 -6.632812 8.453125 -9.894531 9.359375 -13.34375 C 10.035156 -15.914062 10.851562 -18.460938 11.8125 -20.984375 C 12.78125 -23.515625 13.722656 -25.835938 14.640625 -27.953125 C 15.566406 -30.066406 16.285156 -31.753906 16.796875 -33.015625 C 17.097656 -33.703125 17.429688 -34.484375 17.796875 -35.359375 C 18.160156 -36.242188 18.445312 -37.085938 18.65625 -37.890625 Z M 18.65625 -37.890625 "/></g></g><g style="fill:#ffffff;fill-opacity:1;"><g transform="translate(257.530382, 280.818706)"><path style="stroke:none" d="M 18.265625 -38.3125 L 25.234375 -35.8125 C 25.003906 -35.5 24.722656 -35.066406 24.390625 -34.515625 C 24.054688 -33.960938 23.742188 -33.410156 23.453125 -32.859375 C 23.160156 -32.304688 22.941406 -31.890625 22.796875 -31.609375 C 22.472656 -30.941406 22.035156 -30.03125 21.484375 -28.875 C 20.941406 -27.71875 20.367188 -26.40625 19.765625 -24.9375 C 19.160156 -23.476562 18.554688 -21.992188 17.953125 -20.484375 C 17.359375 -18.972656 16.8125 -17.515625 16.3125 -16.109375 C 15.820312 -14.710938 15.441406 -13.5 15.171875 -12.46875 C 15.023438 -11.945312 14.894531 -11.390625 14.78125 -10.796875 C 14.664062 -10.203125 14.570312 -9.640625 14.5 -9.109375 C 15.070312 -9.921875 15.671875 -10.703125 16.296875 -11.453125 C 16.921875 -12.210938 17.535156 -12.96875 18.140625 -13.71875 L 20.609375 -10.375 C 19.773438 -9.113281 18.90625 -7.785156 18 -6.390625 C 17.09375 -4.992188 16.269531 -3.65625 15.53125 -2.375 C 14.789062 -1.09375 14.195312 -0.015625 13.75 0.859375 C 13.59375 1.191406 13.410156 1.585938 13.203125 2.046875 C 13.003906 2.503906 12.894531 2.875 12.875 3.15625 C 12.800781 3.40625 12.710938 3.726562 12.609375 4.125 C 12.503906 4.519531 12.421875 4.910156 12.359375 5.296875 L 6.46875 4.1875 C 6.414062 2.257812 6.554688 -0.164062 6.890625 -3.09375 C 7.222656 -6.03125 7.84375 -9.21875 8.75 -12.65625 C 9.257812 -14.59375 9.863281 -16.578125 10.5625 -18.609375 C 11.269531 -20.648438 12 -22.625 12.75 -24.53125 C 13.507812 -26.4375 14.222656 -28.164062 14.890625 -29.71875 C 15.554688 -31.269531 16.082031 -32.507812 16.46875 -33.4375 C 16.769531 -34.125 17.09375 -34.910156 17.4375 -35.796875 C 17.78125 -36.691406 18.054688 -37.53125 18.265625 -38.3125 Z M 35.71875 0.25 L 35.953125 -0.625 C 34.648438 -1.382812 33.320312 -1.941406 31.96875 -2.296875 C 30.53125 -2.671875 29.289062 -2.703125 28.25 -2.390625 C 27.207031 -2.078125 26.5625 -1.4375 26.3125 -0.46875 C 26.03125 0.570312 26.28125 1.453125 27.0625 2.171875 C 27.851562 2.890625 28.921875 3.425781 30.265625 3.78125 C 31.847656 4.195312 33.054688 4.082031 33.890625 3.4375 C 34.722656 2.789062 35.332031 1.726562 35.71875 0.25 Z M 51.359375 6.5625 L 46.46875 11.015625 C 44.90625 8.429688 43.289062 6.1875 41.625 4.28125 C 40.84375 6.65625 39.476562 8.429688 37.53125 9.609375 C 35.582031 10.785156 32.867188 10.914062 29.390625 10 C 25.878906 9.070312 23.28125 7.613281 21.59375 5.625 C 19.914062 3.644531 19.429688 1.3125 20.140625 -1.375 C 20.828125 -3.988281 22.40625 -5.835938 24.875 -6.921875 C 27.34375 -8.003906 30.320312 -8.085938 33.8125 -7.171875 C 34.394531 -7.015625 34.96875 -6.84375 35.53125 -6.65625 C 36.09375 -6.46875 36.617188 -6.273438 37.109375 -6.078125 C 37.460938 -7.671875 37.835938 -9.382812 38.234375 -11.21875 C 38.640625 -13.050781 39.066406 -14.863281 39.515625 -16.65625 C 38.878906 -16.78125 38.25 -16.921875 37.625 -17.078125 C 37.007812 -17.242188 36.410156 -17.40625 35.828125 -17.5625 C 32.941406 -18.320312 29.992188 -19.210938 26.984375 -20.234375 L 28.59375 -26.328125 C 31.46875 -25.234375 34.398438 -24.289062 37.390625 -23.5 C 37.972656 -23.34375 38.570312 -23.179688 39.1875 -23.015625 C 39.8125 -22.859375 40.421875 -22.722656 41.015625 -22.609375 C 41.328125 -23.890625 41.609375 -25.019531 41.859375 -26 C 42.117188 -26.976562 42.304688 -27.75 42.421875 -28.3125 C 42.523438 -28.6875 42.628906 -29.21875 42.734375 -29.90625 C 42.835938 -30.601562 42.921875 -31.21875 42.984375 -31.75 L 50.3125 -29.828125 C 50.132812 -29.359375 49.9375 -28.835938 49.71875 -28.265625 C 49.507812 -27.691406 49.316406 -27.132812 49.140625 -26.59375 C 48.960938 -26.0625 48.734375 -25.332031 48.453125 -24.40625 C 48.171875 -23.476562 47.882812 -22.445312 47.59375 -21.3125 C 49.050781 -21.113281 50.46875 -20.9375 51.84375 -20.78125 C 53.21875 -20.625 54.539062 -20.503906 55.8125 -20.421875 L 54.125 -14.0625 C 52.84375 -14.21875 51.515625 -14.394531 50.140625 -14.59375 C 48.773438 -14.800781 47.375 -15.03125 45.9375 -15.28125 C 45.351562 -12.789062 44.84375 -10.5 44.40625 -8.40625 C 43.976562 -6.3125 43.582031 -4.390625 43.21875 -2.640625 C 45.125 -1.222656 46.734375 0.3125 48.046875 1.96875 C 49.359375 3.625 50.460938 5.15625 51.359375 6.5625 Z M 51.359375 6.5625 "/></g></g><g style="fill:#ffffff;fill-opacity:1;"><g transform="translate(309.168008, 294.41914)"><path style="stroke:none" d="M 35.90625 -20.96875 L 46.859375 -18.09375 L 43.203125 -4.203125 C 43.429688 -4.140625 43.648438 -4.078125 43.859375 -4.015625 C 44.066406 -3.960938 44.238281 -3.921875 44.375 -3.890625 C 44.976562 -3.679688 45.503906 -3.800781 45.953125 -4.25 C 46.285156 -4.519531 46.664062 -5.222656 47.09375 -6.359375 C 47.519531 -7.503906 48.085938 -9.242188 48.796875 -11.578125 C 49.503906 -13.921875 50.410156 -17.046875 51.515625 -20.953125 L 39.015625 -24.25 C 38.492188 -23.675781 37.972656 -23.109375 37.453125 -22.546875 C 36.941406 -21.984375 36.425781 -21.457031 35.90625 -20.96875 Z M 14.65625 -13.53125 L 21.46875 -11.734375 L 22.15625 -14.328125 L 15.34375 -16.125 Z M 23.859375 -20.828125 L 17.046875 -22.625 L 16.390625 -20.09375 L 23.203125 -18.296875 Z M 34.703125 7.875 L 42.5625 9.9375 C 43.3125 10.132812 43.914062 10.128906 44.375 9.921875 C 44.84375 9.710938 45.28125 9.175781 45.6875 8.3125 C 46.101562 7.445312 46.609375 6.097656 47.203125 4.265625 C 47.660156 4.867188 48.359375 5.519531 49.296875 6.21875 C 50.242188 6.925781 51.070312 7.46875 51.78125 7.84375 C 50.914062 10.3125 50.039062 12.171875 49.15625 13.421875 C 48.269531 14.671875 47.238281 15.425781 46.0625 15.6875 C 44.882812 15.945312 43.40625 15.84375 41.625 15.375 L 32.625 13 C 30.59375 12.46875 29.050781 11.832031 28 11.09375 C 26.945312 10.363281 26.316406 9.398438 26.109375 8.203125 C 25.910156 7.003906 26.0625 5.457031 26.5625 3.5625 L 30.59375 -11.78125 L 39 -9.5625 L 40.28125 -14.40625 L 32.953125 -16.328125 L 33.671875 -19.015625 C 33.390625 -18.835938 33.125 -18.648438 32.875 -18.453125 C 32.625 -18.253906 32.363281 -18.0625 32.09375 -17.875 C 31.820312 -18.25 31.488281 -18.726562 31.09375 -19.3125 C 30.707031 -19.894531 30.265625 -20.453125 29.765625 -20.984375 L 25.8125 -5.96875 L 13.515625 -9.203125 L 11.546875 -1.703125 C 12.566406 -1.660156 13.597656 -1.617188 14.640625 -1.578125 C 15.679688 -1.546875 16.71875 -1.523438 17.75 -1.515625 C 17.59375 -2.210938 17.421875 -2.914062 17.234375 -3.625 C 17.054688 -4.332031 16.867188 -5.007812 16.671875 -5.65625 L 22.046875 -6.390625 C 22.566406 -4.972656 23.03125 -3.4375 23.4375 -1.78125 C 23.851562 -0.125 24.1875 1.472656 24.4375 3.015625 C 24.695312 4.554688 24.816406 5.929688 24.796875 7.140625 L 18.96875 8.09375 C 18.96875 6.84375 18.875 5.378906 18.6875 3.703125 C 15.863281 3.773438 13.054688 3.816406 10.265625 3.828125 C 7.484375 3.847656 4.941406 3.859375 2.640625 3.859375 L 2.546875 -2.140625 C 3.597656 -2.046875 4.671875 -1.984375 5.765625 -1.953125 L 11.984375 -25.546875 L 11.90625 -25.515625 C 11.632812 -26.285156 11.207031 -27.160156 10.625 -28.140625 C 10.039062 -29.128906 9.472656 -29.921875 8.921875 -30.515625 C 11.785156 -31.742188 14.332031 -33.3125 16.5625 -35.21875 C 18.800781 -37.132812 20.628906 -39.035156 22.046875 -40.921875 L 27.625 -39.46875 C 28.4375 -38.382812 29.265625 -37.207031 30.109375 -35.9375 C 30.960938 -34.664062 31.75 -33.394531 32.46875 -32.125 C 33.1875 -30.851562 33.722656 -29.707031 34.078125 -28.6875 L 29.125 -25.25 C 28.726562 -26.53125 28.101562 -28.066406 27.25 -29.859375 C 26.394531 -31.648438 25.460938 -33.285156 24.453125 -34.765625 C 23.296875 -33.585938 21.992188 -32.390625 20.546875 -31.171875 C 19.109375 -29.953125 17.484375 -28.769531 15.671875 -27.625 L 19.90625 -26.5 L 21.046875 -30.796875 L 26.109375 -29.46875 L 24.96875 -25.171875 L 30.0625 -23.828125 C 32.007812 -25.273438 33.859375 -27.101562 35.609375 -29.3125 C 37.359375 -31.519531 38.878906 -33.851562 40.171875 -36.3125 L 45.546875 -33.6875 C 44.628906 -32.039062 43.609375 -30.410156 42.484375 -28.796875 L 58.546875 -24.5625 L 57.921875 -22.1875 C 56.460938 -16.9375 55.25 -12.726562 54.28125 -9.5625 C 53.320312 -6.394531 52.515625 -4.015625 51.859375 -2.421875 C 51.203125 -0.828125 50.585938 0.222656 50.015625 0.734375 C 49.390625 1.304688 48.773438 1.671875 48.171875 1.828125 C 47.578125 1.984375 46.929688 2.046875 46.234375 2.015625 C 45.554688 1.984375 44.765625 1.851562 43.859375 1.625 C 42.960938 1.40625 42.019531 1.148438 41.03125 0.859375 C 41.289062 -0.441406 41.34375 -1.898438 41.1875 -3.515625 L 34.921875 -5.171875 L 32.265625 4.953125 C 32.023438 5.847656 32.050781 6.472656 32.34375 6.828125 C 32.644531 7.191406 33.429688 7.539062 34.703125 7.875 Z M 34.703125 7.875 "/></g></g><g style="fill:#ffffff;fill-opacity:1;"><g transform="translate(360.805634, 308.019573)"><path style="stroke:none" d="M 13.671875 -11.90625 L 19.890625 -9.6875 C 19.347656 -9.007812 18.828125 -8.21875 18.328125 -7.3125 C 17.828125 -6.414062 17.5 -5.660156 17.34375 -5.046875 C 16.925781 -3.472656 17.238281 -2.007812 18.28125 -0.65625 C 19.332031 0.695312 21.53125 1.8125 24.875 2.6875 C 27.3125 3.332031 29.75 3.863281 32.1875 4.28125 C 34.632812 4.707031 36.800781 4.984375 38.6875 5.109375 L 36.75 11.625 C 35.269531 11.488281 33.300781 11.207031 30.84375 10.78125 C 28.382812 10.351562 25.878906 9.804688 23.328125 9.140625 C 18.546875 7.878906 14.992188 6.046875 12.671875 3.640625 C 10.359375 1.242188 9.671875 -1.726562 10.609375 -5.28125 C 10.921875 -6.445312 11.375 -7.617188 11.96875 -8.796875 C 12.570312 -9.984375 13.140625 -11.019531 13.671875 -11.90625 Z M 51.359375 -17.828125 L 51.078125 -11.75 C 49.910156 -11.644531 48.609375 -11.59375 47.171875 -11.59375 C 45.742188 -11.601562 44.226562 -11.65625 42.625 -11.75 C 42.914062 -10.195312 43.222656 -8.601562 43.546875 -6.96875 C 43.878906 -5.34375 44.242188 -3.722656 44.640625 -2.109375 L 40.5625 0.953125 C 39.6875 0.535156 38.617188 0.0546875 37.359375 -0.484375 C 36.097656 -1.035156 34.804688 -1.597656 33.484375 -2.171875 C 32.160156 -2.742188 30.953125 -3.242188 29.859375 -3.671875 L 31.71875 -8.4375 C 32.675781 -8.03125 33.625 -7.65625 34.5625 -7.3125 C 35.507812 -6.976562 36.316406 -6.6875 36.984375 -6.4375 L 36.0625 -12.375 C 32.769531 -12.863281 29.144531 -13.59375 25.1875 -14.5625 C 21.226562 -15.539062 17.332031 -16.679688 13.5 -17.984375 L 14.8125 -23.9375 C 18.539062 -22.570312 22.125 -21.425781 25.5625 -20.5 C 29 -19.582031 32.203125 -18.898438 35.171875 -18.453125 L 34.828125 -20.703125 L 34.359375 -23.9375 C 31.785156 -24.375 28.96875 -25.003906 25.90625 -25.828125 C 22.84375 -26.648438 19.804688 -27.628906 16.796875 -28.765625 L 18.015625 -34.6875 C 20.867188 -33.601562 23.5625 -32.671875 26.09375 -31.890625 C 28.625 -31.109375 31.050781 -30.492188 33.375 -30.046875 L 33.390625 -30.09375 C 33.171875 -31.144531 32.957031 -32.039062 32.75 -32.78125 C 32.550781 -33.53125 32.320312 -34.3125 32.0625 -35.125 L 39.71875 -34.609375 C 39.6875 -33.796875 39.691406 -32.914062 39.734375 -31.96875 C 39.773438 -31.03125 39.851562 -30.066406 39.96875 -29.078125 C 41.75 -28.890625 43.519531 -28.78125 45.28125 -28.75 C 47.050781 -28.71875 48.757812 -28.753906 50.40625 -28.859375 L 49.984375 -22.84375 C 48.578125 -22.8125 47.109375 -22.800781 45.578125 -22.8125 C 44.054688 -22.820312 42.414062 -22.914062 40.65625 -23.09375 L 41.046875 -20.609375 L 41.5625 -17.71875 C 43.613281 -17.582031 45.441406 -17.53125 47.046875 -17.5625 C 48.660156 -17.59375 50.097656 -17.679688 51.359375 -17.828125 Z M 51.359375 -17.828125 "/></g></g><g style="fill:#ffffff;fill-opacity:1;"><g transform="translate(412.443259, 321.620007)"><path style="stroke:none" d="M 32.6875 -12.3125 L 34.28125 -18.359375 C 35.71875 -18.128906 37.320312 -17.835938 39.09375 -17.484375 C 40.863281 -17.128906 42.570312 -16.738281 44.21875 -16.3125 C 47.226562 -15.519531 50.1875 -14.570312 53.09375 -13.46875 L 51.3125 -7.359375 C 50.070312 -7.867188 48.707031 -8.382812 47.21875 -8.90625 C 45.738281 -9.425781 44.226562 -9.890625 42.6875 -10.296875 C 40.894531 -10.765625 39.195312 -11.164062 37.59375 -11.5 C 35.988281 -11.832031 34.351562 -12.101562 32.6875 -12.3125 Z M 41.03125 -27.671875 L 39.328125 -21.234375 C 37.722656 -21.285156 36.039062 -21.394531 34.28125 -21.5625 C 32.519531 -21.726562 30.753906 -21.9375 28.984375 -22.1875 C 28.453125 -21.144531 27.910156 -20.097656 27.359375 -19.046875 C 26.804688 -17.992188 26.257812 -16.988281 25.71875 -16.03125 C 24.789062 -14.363281 23.71875 -12.554688 22.5 -10.609375 C 21.289062 -8.660156 20.039062 -6.703125 18.75 -4.734375 C 17.46875 -2.773438 16.1875 -0.921875 14.90625 0.828125 C 13.632812 2.585938 12.457031 4.140625 11.375 5.484375 L 4.828125 1.21875 C 5.910156 0.132812 7.113281 -1.226562 8.4375 -2.875 C 9.757812 -4.53125 11.101562 -6.316406 12.46875 -8.234375 C 13.84375 -10.160156 15.15625 -12.097656 16.40625 -14.046875 C 17.65625 -16.003906 18.753906 -17.820312 19.703125 -19.5 C 20.054688 -20.132812 20.421875 -20.78125 20.796875 -21.4375 C 21.171875 -22.09375 21.539062 -22.757812 21.90625 -23.4375 C 21.320312 -23.5625 20.742188 -23.6875 20.171875 -23.8125 C 19.597656 -23.945312 19.050781 -24.082031 18.53125 -24.21875 C 17.289062 -24.550781 16.175781 -24.875 15.1875 -25.1875 C 14.207031 -25.5 13.273438 -25.789062 12.390625 -26.0625 L 13.921875 -32.5 C 15.191406 -32.03125 16.296875 -31.628906 17.234375 -31.296875 C 18.179688 -30.972656 19.191406 -30.671875 20.265625 -30.390625 C 21.742188 -29.992188 23.273438 -29.648438 24.859375 -29.359375 C 25.347656 -30.429688 25.757812 -31.367188 26.09375 -32.171875 C 26.488281 -33.097656 26.828125 -34.03125 27.109375 -34.96875 C 27.390625 -35.90625 27.570312 -36.675781 27.65625 -37.28125 L 35.296875 -34.59375 C 34.941406 -33.96875 34.53125 -33.195312 34.0625 -32.28125 C 33.601562 -31.375 33.226562 -30.644531 32.9375 -30.09375 L 32.015625 -28.25 C 33.523438 -28.09375 35.039062 -27.960938 36.5625 -27.859375 C 38.082031 -27.765625 39.570312 -27.703125 41.03125 -27.671875 Z M 27.890625 -6.90625 L 33.875 -4.71875 C 33.488281 -4.050781 33.125 -3.347656 32.78125 -2.609375 C 32.4375 -1.878906 32.1875 -1.21875 32.03125 -0.625 C 31.84375 0.09375 31.851562 0.789062 32.0625 1.46875 C 32.269531 2.15625 32.816406 2.800781 33.703125 3.40625 C 34.585938 4.007812 35.941406 4.550781 37.765625 5.03125 C 39.492188 5.488281 41.265625 5.863281 43.078125 6.15625 C 44.898438 6.457031 46.769531 6.671875 48.6875 6.796875 L 46.703125 13.296875 C 45.203125 13.085938 43.5625 12.828125 41.78125 12.515625 C 40.007812 12.210938 38.109375 11.796875 36.078125 11.265625 C 31.765625 10.128906 28.703125 8.5625 26.890625 6.5625 C 25.085938 4.5625 24.53125 2.265625 25.21875 -0.328125 C 25.519531 -1.492188 25.921875 -2.644531 26.421875 -3.78125 C 26.921875 -4.914062 27.410156 -5.957031 27.890625 -6.90625 Z M 27.890625 -6.90625 "/></g></g></g></svg>