<svg xmlns="http://www.w3.org/2000/svg" xmlns:xlink="http://www.w3.org/1999/xlink" width="700" zoomAndPan="magnify" viewBox="0 0 525 525.000007" height="700" preserveAspectRatio="xMidYMid meet" version="1.2"><defs><clipPath id="3dc6fef5db"><path d="M 16.398438 15.898438 L 508.601562 15.898438 L 508.601562 508.101562 L 16.398438 508.101562 Z M 16.398438 15.898438 "/></clipPath><clipPath id="951e149fb1"><path d="M 262.5 15.898438 C 126.582031 15.898438 16.398438 126.082031 16.398438 262 C 16.398438 397.917969 126.582031 508.101562 262.5 508.101562 C 398.417969 508.101562 508.601562 397.917969 508.601562 262 C 508.601562 126.082031 398.417969 15.898438 262.5 15.898438 Z M 262.5 15.898438 "/></clipPath></defs><g id="ff0500ac28"><g clip-rule="nonzero" clip-path="url(#3dc6fef5db)"><g clip-rule="nonzero" clip-path="url(#951e149fb1)"><path style=" stroke:none;fill-rule:nonzero;fill:#ff8dd3;fill-opacity:1;" d="M 16.398438 15.898438 L 508.601562 15.898438 L 508.601562 508.101562 L 16.398438 508.101562 Z M 16.398438 15.898438 "/></g></g><g style="fill:#ffffff;fill-opacity:1;"><g transform="translate(94.968888, 237.941738)"><path style="stroke:none" d="M 44 -8 L 45.21875 -7.953125 L 49.96875 -5.109375 C 48.519531 -3.128906 46.90625 -1.03125 45.125 1.1875 C 43.34375 3.40625 41.519531 5.628906 39.65625 7.859375 C 37.789062 10.097656 35.992188 12.222656 34.265625 14.234375 L 27.9375 10.546875 C 29.738281 8.503906 31.648438 6.300781 33.671875 3.9375 C 35.691406 1.570312 37.519531 -0.644531 39.15625 -2.71875 L 11.34375 -10.046875 L 12.953125 -16.171875 Z M 25.09375 -24.875 L 44.5 -19.765625 C 42.96875 -22.015625 41.585938 -24.265625 40.359375 -26.515625 C 39.140625 -28.773438 38.148438 -30.894531 37.390625 -32.875 C 35.796875 -31.507812 33.953125 -30.132812 31.859375 -28.75 C 29.765625 -27.375 27.507812 -26.082031 25.09375 -24.875 Z M 35.53125 -40.078125 L 41.984375 -38.390625 C 43.222656 -35.117188 44.757812 -31.878906 46.59375 -28.671875 C 48.425781 -25.460938 50.484375 -22.46875 52.765625 -19.6875 C 55.054688 -16.90625 57.429688 -14.46875 59.890625 -12.375 C 58.890625 -11.789062 57.90625 -11.097656 56.9375 -10.296875 C 55.976562 -9.492188 55.0625 -8.6875 54.1875 -7.875 C 51.21875 -10.851562 48.4375 -14.171875 45.84375 -17.828125 L 44.671875 -13.328125 L 21.6875 -19.390625 L 22.828125 -23.71875 C 20.921875 -22.789062 18.96875 -21.941406 16.96875 -21.171875 C 14.96875 -20.410156 12.941406 -19.738281 10.890625 -19.15625 C 10.691406 -20.019531 10.328125 -21.050781 9.796875 -22.25 C 9.273438 -23.457031 8.738281 -24.5 8.1875 -25.375 C 10.789062 -26.039062 13.398438 -26.90625 16.015625 -27.96875 C 18.640625 -29.039062 21.160156 -30.242188 23.578125 -31.578125 C 25.992188 -32.910156 28.226562 -34.3125 30.28125 -35.78125 C 32.332031 -37.25 34.082031 -38.679688 35.53125 -40.078125 Z M 35.53125 -40.078125 "/></g></g><g style="fill:#ffffff;fill-opacity:1;"><g transform="translate(149.156764, 252.213863)"><path style="stroke:none" d="M 26.546875 -12.078125 C 26.210938 -10.847656 26.375 -9.757812 27.03125 -8.8125 C 27.695312 -7.875 28.550781 -7.265625 29.59375 -6.984375 C 30.71875 -6.691406 31.800781 -6.921875 32.84375 -7.671875 C 33.882812 -8.421875 34.535156 -9.992188 34.796875 -12.390625 C 34.410156 -13.847656 33.398438 -14.789062 31.765625 -15.21875 C 30.765625 -15.488281 29.734375 -15.382812 28.671875 -14.90625 C 27.617188 -14.425781 26.910156 -13.484375 26.546875 -12.078125 Z M 60.296875 -24 L 58.5625 -17.65625 C 56.9375 -18.164062 54.859375 -18.78125 52.328125 -19.5 C 49.804688 -20.226562 46.71875 -21.078125 43.0625 -22.046875 C 42.75 -20.691406 42.40625 -19.3125 42.03125 -17.90625 C 41.664062 -16.5 41.332031 -15.21875 41.03125 -14.0625 C 41.445312 -12.863281 41.648438 -11.585938 41.640625 -10.234375 C 41.628906 -8.890625 41.441406 -7.507812 41.078125 -6.09375 C 40.617188 -4.363281 39.847656 -2.628906 38.765625 -0.890625 C 37.691406 0.847656 36.257812 2.445312 34.46875 3.90625 C 32.675781 5.375 30.484375 6.554688 27.890625 7.453125 C 25.296875 8.359375 22.226562 8.851562 18.6875 8.9375 L 14.5 1.671875 C 17.363281 1.804688 20.0625 1.695312 22.59375 1.34375 C 25.125 0.988281 27.34375 0.210938 29.25 -0.984375 C 28.863281 -1.003906 28.453125 -1.039062 28.015625 -1.09375 C 27.585938 -1.15625 27.15625 -1.242188 26.71875 -1.359375 C 25.351562 -1.722656 24.046875 -2.460938 22.796875 -3.578125 C 21.546875 -4.703125 20.632812 -6.117188 20.0625 -7.828125 C 19.488281 -9.546875 19.488281 -11.488281 20.0625 -13.65625 C 20.59375 -15.6875 21.539062 -17.320312 22.90625 -18.5625 C 24.28125 -19.8125 25.890625 -20.632812 27.734375 -21.03125 C 29.578125 -21.4375 31.476562 -21.382812 33.4375 -20.875 C 34.1875 -20.675781 34.875 -20.4375 35.5 -20.15625 L 36.375 -23.75 C 32.320312 -24.769531 28.28125 -25.722656 24.25 -26.609375 C 20.21875 -27.503906 16.519531 -28.300781 13.15625 -29 L 14.6875 -35.546875 C 16.738281 -35.003906 19.109375 -34.40625 21.796875 -33.75 C 24.492188 -33.101562 27.25 -32.4375 30.0625 -31.75 C 32.882812 -31.070312 35.492188 -30.4375 37.890625 -29.84375 C 37.972656 -30.175781 38.050781 -30.484375 38.125 -30.765625 C 38.195312 -31.054688 38.238281 -31.296875 38.25 -31.484375 C 38.445312 -32.359375 38.617188 -33.253906 38.765625 -34.171875 C 38.921875 -35.097656 38.992188 -35.796875 38.984375 -36.265625 L 46.796875 -34.203125 C 46.679688 -33.929688 46.515625 -33.492188 46.296875 -32.890625 C 46.078125 -32.296875 45.867188 -31.6875 45.671875 -31.0625 C 45.472656 -30.4375 45.320312 -29.984375 45.21875 -29.703125 C 45.15625 -29.492188 45.078125 -29.253906 44.984375 -28.984375 C 44.898438 -28.722656 44.816406 -28.429688 44.734375 -28.109375 C 46.535156 -27.628906 48.460938 -27.117188 50.515625 -26.578125 C 52.578125 -26.035156 54.484375 -25.535156 56.234375 -25.078125 C 57.992188 -24.628906 59.347656 -24.269531 60.296875 -24 Z M 60.296875 -24 "/></g></g><g style="fill:#ffffff;fill-opacity:1;"><g transform="translate(203.34464, 266.485988)"><path style="stroke:none" d="M 43.75 -21.984375 C 44.050781 -21.210938 44.351562 -20.238281 44.65625 -19.0625 C 44.96875 -17.894531 45.265625 -16.734375 45.546875 -15.578125 C 45.828125 -14.429688 46.046875 -13.488281 46.203125 -12.75 L 41.25 -12.03125 C 41.082031 -12.882812 40.875 -13.875 40.625 -15 C 40.382812 -16.125 40.125 -17.253906 39.84375 -18.390625 C 39.570312 -19.535156 39.28125 -20.535156 38.96875 -21.390625 Z M 51 -22.84375 C 51.289062 -22.070312 51.59375 -21.101562 51.90625 -19.9375 C 52.21875 -18.78125 52.515625 -17.628906 52.796875 -16.484375 C 53.078125 -15.347656 53.304688 -14.394531 53.484375 -13.625 L 48.625 -12.921875 C 48.414062 -13.796875 48.171875 -14.789062 47.890625 -15.90625 C 47.609375 -17.03125 47.3125 -18.148438 47 -19.265625 C 46.695312 -20.378906 46.382812 -21.351562 46.0625 -22.1875 Z M 44.234375 -35.9375 L 49.109375 -28.671875 C 48.078125 -28.285156 47.054688 -27.875 46.046875 -27.4375 C 45.046875 -27.007812 44.160156 -26.628906 43.390625 -26.296875 C 42.328125 -25.835938 41.050781 -25.28125 39.5625 -24.625 C 38.082031 -23.976562 36.53125 -23.289062 34.90625 -22.5625 C 33.289062 -21.832031 31.722656 -21.125 30.203125 -20.4375 C 28.691406 -19.75 27.390625 -19.148438 26.296875 -18.640625 C 25.140625 -18.085938 24.332031 -17.59375 23.875 -17.15625 C 23.414062 -16.71875 23.289062 -16.195312 23.5 -15.59375 C 23.707031 -15 24.171875 -14.164062 24.890625 -13.09375 C 25.679688 -11.957031 26.726562 -10.492188 28.03125 -8.703125 C 29.332031 -6.910156 30.734375 -4.972656 32.234375 -2.890625 C 33.734375 -0.816406 35.179688 1.238281 36.578125 3.28125 C 37.972656 5.332031 39.164062 7.1875 40.15625 8.84375 L 32.40625 12.953125 C 31.90625 11.921875 31.359375 10.875 30.765625 9.8125 C 30.179688 8.75 29.613281 7.722656 29.0625 6.734375 C 28.507812 5.765625 27.742188 4.515625 26.765625 2.984375 C 25.796875 1.460938 24.710938 -0.171875 23.515625 -1.921875 C 22.316406 -3.671875 21.128906 -5.398438 19.953125 -7.109375 C 18.773438 -8.828125 17.71875 -10.375 16.78125 -11.75 C 15.40625 -13.726562 14.613281 -15.398438 14.40625 -16.765625 C 14.207031 -18.140625 14.601562 -19.363281 15.59375 -20.4375 C 16.59375 -21.507812 18.175781 -22.550781 20.34375 -23.5625 C 21.625 -24.15625 23.097656 -24.820312 24.765625 -25.5625 C 26.429688 -26.300781 28.132812 -27.085938 29.875 -27.921875 C 31.613281 -28.753906 33.269531 -29.5625 34.84375 -30.34375 C 36.425781 -31.132812 37.789062 -31.859375 38.9375 -32.515625 C 39.882812 -33.035156 40.863281 -33.609375 41.875 -34.234375 C 42.894531 -34.859375 43.679688 -35.425781 44.234375 -35.9375 Z M 44.234375 -35.9375 "/></g></g><g style="fill:#ffffff;fill-opacity:1;"><g transform="translate(257.532515, 280.758112)"><path style="stroke:none" d="M 24.9375 -30.453125 L 19.125 -27.53125 C 18.832031 -28.5 18.359375 -29.597656 17.703125 -30.828125 C 17.046875 -32.066406 16.304688 -33.328125 15.484375 -34.609375 C 14.671875 -35.890625 13.820312 -37.066406 12.9375 -38.140625 L 18.34375 -40.671875 C 19.21875 -39.660156 20.09375 -38.546875 20.96875 -37.328125 C 21.84375 -36.117188 22.632812 -34.921875 23.34375 -33.734375 C 24.050781 -32.546875 24.582031 -31.453125 24.9375 -30.453125 Z M 22.453125 -25.890625 L 22.84375 -20.296875 C 20.664062 -19.640625 18.414062 -18.96875 16.09375 -18.28125 C 13.769531 -17.59375 11.632812 -17.003906 9.6875 -16.515625 L 7.875 -22.671875 C 9.695312 -22.960938 11.90625 -23.414062 14.5 -24.03125 C 17.101562 -24.644531 19.753906 -25.265625 22.453125 -25.890625 Z M 29.71875 -21.5 L 28.75 -17.8125 L 37.625 -15.46875 L 38.59375 -19.15625 Z M 39.8125 -23.765625 L 40.75 -27.34375 L 31.875 -29.6875 L 30.9375 -26.109375 Z M 53.75 3.84375 L 38.140625 -0.265625 C 39.929688 2.054688 42.148438 4.304688 44.796875 6.484375 C 47.441406 8.671875 50.175781 10.582031 53 12.21875 C 52.132812 12.6875 51.144531 13.351562 50.03125 14.21875 C 48.914062 15.082031 48.003906 15.847656 47.296875 16.515625 C 44.390625 14.617188 41.597656 12.332031 38.921875 9.65625 C 36.253906 6.988281 33.96875 4.191406 32.0625 1.265625 L 29.078125 12.59375 L 22.578125 10.875 L 25.609375 -0.625 C 22.546875 1.164062 19.191406 2.601562 15.546875 3.6875 C 11.898438 4.78125 8.335938 5.488281 4.859375 5.8125 C 4.566406 4.84375 4.132812 3.710938 3.5625 2.421875 C 3 1.128906 2.457031 0.0703125 1.9375 -0.75 C 5.195312 -0.789062 8.515625 -1.164062 11.890625 -1.875 C 15.265625 -2.59375 18.304688 -3.5625 21.015625 -4.78125 L 5.5625 -8.84375 L 7.046875 -14.4375 L 27.8125 -8.96875 L 28.765625 -12.59375 L 21.5 -14.5 L 27.203125 -36.171875 L 33.59375 -34.5 C 34.613281 -36.28125 35.46875 -37.96875 36.15625 -39.5625 L 43.109375 -36.921875 C 42.609375 -36.203125 42.101562 -35.492188 41.59375 -34.796875 C 41.082031 -34.109375 40.585938 -33.4375 40.109375 -32.78125 L 48.34375 -30.609375 L 46.921875 -25.1875 C 48.515625 -25.976562 50.242188 -26.9375 52.109375 -28.0625 C 53.972656 -29.195312 55.554688 -30.269531 56.859375 -31.28125 L 61.515625 -26.515625 C 59.660156 -25.335938 57.71875 -24.203125 55.6875 -23.109375 C 53.664062 -22.023438 51.832031 -21.117188 50.1875 -20.390625 L 46.6875 -24.328125 L 44.921875 -17.609375 L 48.03125 -19.703125 C 49.1875 -18.691406 50.4375 -17.546875 51.78125 -16.265625 C 53.132812 -14.984375 54.410156 -13.695312 55.609375 -12.40625 C 56.816406 -11.125 57.769531 -9.988281 58.46875 -9 L 53.234375 -5.21875 C 52.671875 -6.101562 51.894531 -7.128906 50.90625 -8.296875 C 49.914062 -9.472656 48.84375 -10.660156 47.6875 -11.859375 C 46.539062 -13.066406 45.414062 -14.207031 44.3125 -15.28125 L 42.640625 -8.9375 L 35.265625 -10.875 L 34.3125 -7.25 L 55.234375 -1.75 Z M 53.75 3.84375 "/></g></g><g style="fill:#ffffff;fill-opacity:1;"><g transform="translate(311.720391, 295.030237)"><path style="stroke:none" d="M 22.859375 -39.875 L 31.5 -37.5 C 31.019531 -36.425781 30.546875 -35.265625 30.078125 -34.015625 C 29.617188 -32.765625 29.222656 -31.597656 28.890625 -30.515625 C 28.453125 -29.097656 27.921875 -27.359375 27.296875 -25.296875 C 26.671875 -23.234375 26.019531 -21.054688 25.34375 -18.765625 C 24.664062 -16.472656 24.015625 -14.226562 23.390625 -12.03125 C 22.773438 -9.84375 22.25 -7.914062 21.8125 -6.25 C 21.332031 -4.4375 21.28125 -2.921875 21.65625 -1.703125 C 22.03125 -0.484375 22.722656 0.484375 23.734375 1.203125 C 24.742188 1.929688 25.9375 2.476562 27.3125 2.84375 C 30.269531 3.625 33.019531 3.804688 35.5625 3.390625 C 38.101562 2.984375 40.460938 2.175781 42.640625 0.96875 C 44.816406 -0.238281 46.789062 -1.648438 48.5625 -3.265625 L 51.859375 4.046875 C 50.660156 5.078125 49.175781 6.117188 47.40625 7.171875 C 45.644531 8.234375 43.628906 9.132812 41.359375 9.875 C 39.097656 10.613281 36.625 11.046875 33.9375 11.171875 C 31.257812 11.296875 28.390625 10.953125 25.328125 10.140625 C 22.390625 9.367188 19.957031 8.25 18.03125 6.78125 C 16.113281 5.3125 14.804688 3.457031 14.109375 1.21875 C 13.421875 -1.007812 13.476562 -3.644531 14.28125 -6.6875 C 14.65625 -8.125 15.109375 -9.773438 15.640625 -11.640625 C 16.171875 -13.515625 16.734375 -15.472656 17.328125 -17.515625 C 17.929688 -19.554688 18.515625 -21.535156 19.078125 -23.453125 C 19.640625 -25.378906 20.144531 -27.128906 20.59375 -28.703125 C 21.050781 -30.285156 21.398438 -31.523438 21.640625 -32.421875 C 21.972656 -33.691406 22.25 -34.972656 22.46875 -36.265625 C 22.695312 -37.566406 22.828125 -38.769531 22.859375 -39.875 Z M 22.859375 -39.875 "/></g></g><g style="fill:#ffffff;fill-opacity:1;"><g transform="translate(365.908267, 309.302362)"><path style="stroke:none" d="M 14.515625 -13.515625 C 14.210938 -12.347656 14.269531 -11.363281 14.6875 -10.5625 C 15.113281 -9.757812 15.722656 -9.253906 16.515625 -9.046875 C 17.742188 -8.722656 18.769531 -9.050781 19.59375 -10.03125 C 20.414062 -11.007812 21.023438 -12.257812 21.421875 -13.78125 C 21.703125 -14.832031 21.679688 -15.703125 21.359375 -16.390625 C 21.046875 -17.085938 20.507812 -17.535156 19.75 -17.734375 C 18.707031 -18.015625 17.675781 -17.773438 16.65625 -17.015625 C 15.644531 -16.253906 14.929688 -15.085938 14.515625 -13.515625 Z M 43.0625 -6.5625 L 49.875 -2.328125 C 49.601562 -1.316406 49.378906 -0.488281 49.203125 0.15625 C 49.035156 0.8125 48.878906 1.414062 48.734375 1.96875 C 48.585938 2.53125 48.398438 3.1875 48.171875 3.9375 C 47.648438 5.5 47 6.832031 46.21875 7.9375 C 45.445312 9.050781 44.390625 9.910156 43.046875 10.515625 C 41.703125 11.128906 39.898438 11.488281 37.640625 11.59375 C 36.773438 11.632812 35.632812 11.554688 34.21875 11.359375 C 32.8125 11.160156 31.34375 10.90625 29.8125 10.59375 C 28.28125 10.289062 26.898438 9.976562 25.671875 9.65625 C 22.566406 8.832031 20.1875 7.960938 18.53125 7.046875 C 16.882812 6.140625 15.75 5.207031 15.125 4.25 C 14.507812 3.300781 14.222656 2.347656 14.265625 1.390625 C 14.304688 0.429688 14.453125 -0.515625 14.703125 -1.453125 L 15 -2.59375 C 14.84375 -2.601562 14.691406 -2.625 14.546875 -2.65625 C 14.398438 -2.695312 14.257812 -2.738281 14.125 -2.78125 C 12.8125 -3.125 11.632812 -3.773438 10.59375 -4.734375 C 9.5625 -5.703125 8.84375 -7 8.4375 -8.625 C 8.039062 -10.257812 8.144531 -12.21875 8.75 -14.5 C 9.3125 -16.632812 10.234375 -18.421875 11.515625 -19.859375 C 12.796875 -21.304688 14.304688 -22.316406 16.046875 -22.890625 C 17.796875 -23.472656 19.640625 -23.507812 21.578125 -23 L 21.8125 -22.9375 L 22.75 -26.515625 L 21.65625 -26.8125 C 19.34375 -27.414062 16.460938 -28.351562 13.015625 -29.625 L 14.3125 -36.046875 C 15.726562 -35.441406 17.175781 -34.863281 18.65625 -34.3125 C 20.132812 -33.769531 21.507812 -33.332031 22.78125 -33 L 24.359375 -32.578125 L 24.46875 -33.015625 C 24.914062 -34.710938 25.222656 -36.078125 25.390625 -37.109375 C 25.566406 -38.148438 25.671875 -39.097656 25.703125 -39.953125 L 33.234375 -37.96875 C 32.878906 -37.195312 32.519531 -36.3125 32.15625 -35.3125 C 31.800781 -34.3125 31.410156 -32.992188 30.984375 -31.359375 C 32.597656 -31.179688 34.238281 -31.035156 35.90625 -30.921875 C 37.570312 -30.804688 39.273438 -30.75 41.015625 -30.75 L 39.296875 -24.234375 C 37.648438 -24.296875 35.972656 -24.421875 34.265625 -24.609375 C 32.566406 -24.804688 30.9375 -25.019531 29.375 -25.25 L 27.546875 -18.3125 C 28.203125 -16.582031 28.242188 -14.632812 27.671875 -12.46875 C 27.234375 -10.769531 26.570312 -9.175781 25.6875 -7.6875 C 24.8125 -6.195312 23.710938 -4.992188 22.390625 -4.078125 L 21.828125 -1.953125 C 21.628906 -1.203125 21.597656 -0.53125 21.734375 0.0625 C 21.878906 0.664062 22.410156 1.222656 23.328125 1.734375 C 24.253906 2.242188 25.765625 2.773438 27.859375 3.328125 C 29.234375 3.691406 30.722656 3.988281 32.328125 4.21875 C 33.929688 4.445312 35.269531 4.550781 36.34375 4.53125 C 37.84375 4.46875 39.015625 4.070312 39.859375 3.34375 C 40.710938 2.625 41.328125 1.554688 41.703125 0.140625 C 41.972656 -0.898438 42.226562 -1.957031 42.46875 -3.03125 C 42.707031 -4.101562 42.90625 -5.28125 43.0625 -6.5625 Z M 44.25 -24.96875 L 49.984375 -28.265625 C 50.671875 -27.515625 51.429688 -26.570312 52.265625 -25.4375 C 53.109375 -24.3125 53.929688 -23.109375 54.734375 -21.828125 C 55.546875 -20.554688 56.296875 -19.328125 56.984375 -18.140625 C 57.679688 -16.953125 58.242188 -15.921875 58.671875 -15.046875 L 52.484375 -11.34375 C 51.816406 -12.789062 50.992188 -14.375 50.015625 -16.09375 C 49.046875 -17.820312 48.054688 -19.484375 47.046875 -21.078125 C 46.046875 -22.679688 45.113281 -23.976562 44.25 -24.96875 Z M 44.25 -24.96875 "/></g></g></g></svg>