<svg fill="none" height="207" viewBox="0 0 1107 207" width="1107" xmlns="http://www.w3.org/2000/svg"><path d="m115 0v40.5h-31.25v161.875h-52.625v-161.875h-31.125v-40.5zm102.875 0 30.125 202.375h-53.875l-2.625-36.375h-18.875l-3.125 36.375h-54.5l26.75-202.375zm-27.875 130.125c-2.667-22.917-5.333-51.2083-8-84.875-5.333 38.6667-8.667 66.958-10 84.875zm192.375-130.125-30.125 91.375 33 111h-54.375l-21.25-86.75v86.75h-52.625v-202.375h52.625v78.625l23.375-78.625zm103 0 30.125 202.375h-53.875l-2.625-36.375h-18.875l-3.125 36.375h-54.5l26.75-202.375zm-27.875 130.125c-2.667-22.917-5.333-51.2083-8-84.875-5.333 38.6667-8.667 66.958-10 84.875zm229.375-130.125v202.375h-46v-136.625l-18.375 136.625h-32.625l-19.375-133.5v133.5h-46v-202.375h68.125c2 12.1667 4.125 26.5 6.375 43l7.25 51.5 12-94.5zm140.75 0v135.25c0 15.333-.5 26.125-1.5 32.375-1 6.167-3.958 12.542-8.875 19.125-4.917 6.5-11.417 11.458-19.5 14.875-8 3.333-17.458 5-28.375 5-12.083 0-22.75-2-32-6s-16.167-9.208-20.75-15.625-7.292-13.167-8.125-20.25c-.833-7.167-1.25-22.167-1.25-45v-119.75h52.625v151.75c0 8.833.458 14.5 1.375 17 1 2.417 2.958 3.625 5.875 3.625 3.333 0 5.458-1.333 6.375-4 1-2.75 1.5-9.167 1.5-19.25v-149.125zm20.375 0h37.25c24.833 0 41.625.958333 50.375 2.875 8.833 1.91667 16 6.83333 21.5 14.75 5.583 7.8333 8.375 20.375 8.375 37.625 0 15.75-1.958 26.3333-5.875 31.75s-11.625 8.6667-23.125 9.75c10.417 2.5833 17.417 6.042 21 10.375s5.792 8.333 6.625 12c.917 3.583 1.375 13.542 1.375 29.875v53.375h-48.875v-67.25c0-10.833-.875-17.542-2.625-20.125-1.667-2.583-6.125-3.875-13.375-3.875v91.25h-52.625zm52.625 34.625v45c5.917 0 10.042-.7917 12.375-2.375 2.417-1.6667 3.625-6.9583 3.625-15.875v-11.125c0-6.4167-1.167-10.625-3.5-12.625-2.25-2-6.417-3-12.5-3zm176.255-34.625 30.12 202.375h-53.88l-2.62-36.375h-18.88l-3.12 36.375h-54.5l26.75-202.375zm-27.88 130.125c-2.67-22.917-5.33-51.2083-8-84.875-5.33 38.6667-8.67 66.958-10 84.875z" fill="#f8f8f2"/></svg>