<svg fill="none" height="92" viewBox="0 0 802 92" width="802" xmlns="http://www.w3.org/2000/svg"><path d="m26.2398 89.6001v-66.176h-26.24000701v-23.42400845h82.68800701v23.42400845h-26.24v66.176zm50.066 0 39.1682-89.60000845h29.696l39.168 89.60000845h-31.232l-28.928-75.264h11.776l-28.928 75.264zm23.296-15.616 7.6802-21.76h41.216l7.68 21.76zm116.5652-3.584-1.664-33.152 33.792-37.24800845h32.896l-37.888 41.72800845-16.768 17.152zm-27.008 19.2v-89.60000845h29.696v89.60000845zm58.88 0-26.368-34.816 19.584-20.736 41.728 55.552zm24.767 0 39.168-89.60000845h29.696l39.168 89.60000845h-31.232l-28.928-75.264h11.776l-28.928 75.264zm23.296-15.616 7.68-21.76h41.216l7.68 21.76zm89.557 15.616v-89.60000845h24.832l35.84 58.49600845h-13.056l34.816-58.49600845h24.832l.256 89.60000845h-27.52l-.256-48.128h4.352l-23.808 40.064h-13.312l-24.832-40.064h5.376v48.128zm165.005 2.048c-13.739 0-24.448-3.712-32.128-11.136s-11.52-17.8347-11.52-31.232v-49.28000845h30.208v48.38400845c0 6.8267 1.237 11.6907 3.712 14.592 2.474 2.816 5.802 4.224 9.984 4.224 4.266 0 7.594-1.408 9.984-4.224 2.474-2.9013 3.712-7.7653 3.712-14.592v-48.38400845h29.696v49.28000845c0 13.3973-3.84 23.808-11.52 31.232s-18.39 11.136-32.128 11.136zm57.495-2.048v-89.60000845h43.136c8.362 0 15.573 1.36533845 21.632 4.09599845 6.144 2.73067 10.88 6.65601 14.208 11.77601 3.328 5.0347 4.992 11.008 4.992 17.92s-1.664 12.8853-4.992 17.92c-3.328 4.9493-8.064 8.7467-14.208 11.392-6.059 2.6453-13.27 3.968-21.632 3.968h-26.368l13.44-12.416v34.944zm53.632 0-22.016-32.64h32l22.272 32.64zm-23.424-31.616-13.44-13.696h24.448c4.181 0 7.253-.9387 9.216-2.816 2.048-1.8773 3.072-4.4373 3.072-7.68s-1.024-5.8027-3.072-7.68c-1.963-1.8773-5.035-2.816-9.216-2.816h-24.448l13.44-13.696zm55.439 31.616 39.168-89.60000845h29.696l39.168 89.60000845h-31.232l-28.928-75.264h11.776l-28.928 75.264zm23.296-15.616 7.68-21.76h41.216l7.68 21.76z" fill="#000"/></svg>